<svg width="48" height="48" viewBox="0 0 48 48" fill="none" xmlns="http://www.w3.org/2000/svg">
<path d="M13.8433 0.416006C11.4793 -0.138994 9.01926 -0.138994 6.65526 0.416006C3.55926 1.14201 1.14225 3.55902 0.41625 6.65502C-0.13875 9.01902 -0.13875 11.479 0.41625 13.843C1.14225 16.939 3.55926 19.357 6.65526 20.083C9.01926 20.637 11.4793 20.637 13.8433 20.083C16.9393 19.357 19.3572 16.939 20.0832 13.843C20.6372 11.479 20.6372 9.01902 20.0832 6.65502C19.3572 3.55902 16.9393 1.14201 13.8433 0.416006Z" fill="#FCA311"/>
<path d="M13.8433 0.416006C11.4793 -0.138994 9.01926 -0.138994 6.65526 0.416006C3.55926 1.14201 1.14225 3.55902 0.41625 6.65502C-0.13875 9.01902 -0.13875 11.479 0.41625 13.843C1.14225 16.939 3.55926 19.357 6.65526 20.083C9.01926 20.637 11.4793 20.637 13.8433 20.083C16.9393 19.357 19.3572 16.939 20.0832 13.843C20.6372 11.479 20.6372 9.01902 20.0832 6.65502C19.3572 3.55902 16.9393 1.14201 13.8433 0.416006Z" fill="url(#paint0_linear_7_2000)"/>
<path d="M13.8433 27.917C11.4793 27.363 9.01926 27.363 6.65526 27.917C3.55926 28.643 1.14225 31.061 0.41625 34.157C-0.13875 36.521 -0.13875 38.9809 0.41625 41.3449C1.14225 44.4409 3.55926 46.858 6.65526 47.584C9.01926 48.139 11.4793 48.139 13.8433 47.584C16.9393 46.858 19.3572 44.4409 20.0832 41.3449C20.6372 38.9809 20.6372 36.521 20.0832 34.157C19.3572 31.061 16.9393 28.643 13.8433 27.917Z" fill="#FCA311"/>
<path d="M13.8433 27.917C11.4793 27.363 9.01926 27.363 6.65526 27.917C3.55926 28.643 1.14225 31.061 0.41625 34.157C-0.13875 36.521 -0.13875 38.9809 0.41625 41.3449C1.14225 44.4409 3.55926 46.858 6.65526 47.584C9.01926 48.139 11.4793 48.139 13.8433 47.584C16.9393 46.858 19.3572 44.4409 20.0832 41.3449C20.6372 38.9809 20.6372 36.521 20.0832 34.157C19.3572 31.061 16.9393 28.643 13.8433 27.917Z" fill="url(#paint1_linear_7_2000)"/>
<path d="M41.3449 0.416006C38.9809 -0.138994 36.521 -0.138994 34.157 0.416006C31.061 1.14201 28.643 3.55902 27.917 6.65502C27.363 9.01902 27.363 11.479 27.917 13.843C28.643 16.939 31.061 19.357 34.157 20.083C36.521 20.637 38.9809 20.637 41.3449 20.083C44.4409 19.357 46.858 16.939 47.584 13.843C48.139 11.479 48.139 9.01902 47.584 6.65502C46.858 3.55902 44.4409 1.14201 41.3449 0.416006Z" fill="#FCA311"/>
<path d="M41.3449 0.416006C38.9809 -0.138994 36.521 -0.138994 34.157 0.416006C31.061 1.14201 28.643 3.55902 27.917 6.65502C27.363 9.01902 27.363 11.479 27.917 13.843C28.643 16.939 31.061 19.357 34.157 20.083C36.521 20.637 38.9809 20.637 41.3449 20.083C44.4409 19.357 46.858 16.939 47.584 13.843C48.139 11.479 48.139 9.01902 47.584 6.65502C46.858 3.55902 44.4409 1.14201 41.3449 0.416006Z" fill="url(#paint2_linear_7_2000)"/>
<path d="M41.3449 27.917C38.9809 27.363 36.521 27.363 34.157 27.917C31.061 28.643 28.643 31.061 27.917 34.157C27.363 36.521 27.363 38.9809 27.917 41.3449C28.643 44.4409 31.061 46.858 34.157 47.584C36.521 48.139 38.9809 48.139 41.3449 47.584C44.4409 46.858 46.858 44.4409 47.584 41.3449C48.139 38.9809 48.139 36.521 47.584 34.157C46.858 31.061 44.4409 28.643 41.3449 27.917Z" fill="#FCA311"/>
<path d="M41.3449 27.917C38.9809 27.363 36.521 27.363 34.157 27.917C31.061 28.643 28.643 31.061 27.917 34.157C27.363 36.521 27.363 38.9809 27.917 41.3449C28.643 44.4409 31.061 46.858 34.157 47.584C36.521 48.139 38.9809 48.139 41.3449 47.584C44.4409 46.858 46.858 44.4409 47.584 41.3449C48.139 38.9809 48.139 36.521 47.584 34.157C46.858 31.061 44.4409 28.643 41.3449 27.917Z" fill="url(#paint3_linear_7_2000)"/>
<defs>
<linearGradient id="paint0_linear_7_2000" x1="0.0005872" y1="-0.519501" x2="68.4817" y2="134.201" gradientUnits="userSpaceOnUse">
<stop stop-color="#09C6F9"/>
<stop offset="1" stop-color="#045DE9"/>
</linearGradient>
<linearGradient id="paint1_linear_7_2000" x1="0.000586637" y1="-64.9184" x2="68.4817" y2="69.8022" gradientUnits="userSpaceOnUse">
<stop stop-color="#09C6F9"/>
<stop offset="1" stop-color="#045DE9"/>
</linearGradient>
<linearGradient id="paint2_linear_7_2000" x1="-64.398" y1="-0.519499" x2="4.08316" y2="134.201" gradientUnits="userSpaceOnUse">
<stop stop-color="#09C6F9"/>
<stop offset="1" stop-color="#045DE9"/>
</linearGradient>
<linearGradient id="paint3_linear_7_2000" x1="-2.73384e-05" y1="-0.222024" x2="29.245" y2="57.311" gradientUnits="userSpaceOnUse">
<stop stop-color="#09C6F9"/>
<stop offset="1" stop-color="#045DE9"/>
</linearGradient>
</defs>
</svg>
