<svg width="32" height="32" viewBox="0 0 32 32" fill="none" xmlns="http://www.w3.org/2000/svg">
<path d="M16 32C24.8366 32 32 24.8366 32 16C32 7.16344 24.8366 0 16 0C7.16344 0 0 7.16344 0 16C0 24.8366 7.16344 32 16 32Z" fill="#FCA311"/>
<path d="M16 32C24.8366 32 32 24.8366 32 16C32 7.16344 24.8366 0 16 0C7.16344 0 0 7.16344 0 16C0 24.8366 7.16344 32 16 32Z" fill="url(#paint0_linear_7_2005)"/>
<path d="M8.81592 20V11.6H14.2399V12.836H10.3519V15.188H13.4959V16.4H10.3519V20H8.81592ZM15.4249 20V11.6H18.7969C19.6689 11.6 20.3329 11.804 20.7889 12.212C21.2529 12.612 21.4849 13.128 21.4849 13.76C21.4849 14.288 21.3409 14.712 21.0529 15.032C20.7729 15.344 20.4289 15.556 20.0209 15.668C20.5009 15.764 20.8969 16.004 21.2089 16.388C21.5209 16.764 21.6769 17.204 21.6769 17.708C21.6769 18.372 21.4369 18.92 20.9569 19.352C20.4769 19.784 19.7969 20 18.9169 20H15.4249ZM16.9609 15.128H18.5689C19.0009 15.128 19.3329 15.028 19.5649 14.828C19.7969 14.628 19.9129 14.344 19.9129 13.976C19.9129 13.624 19.7969 13.348 19.5649 13.148C19.3409 12.94 19.0009 12.836 18.5449 12.836H16.9609V15.128ZM16.9609 18.752H18.6769C19.1329 18.752 19.4849 18.648 19.7329 18.44C19.9889 18.224 20.1169 17.924 20.1169 17.54C20.1169 17.148 19.9849 16.84 19.7209 16.616C19.4569 16.392 19.1009 16.28 18.6529 16.28H16.9609V18.752Z" fill="white"/>
<defs>
<linearGradient id="paint0_linear_7_2005" x1="1.92997e-07" y1="-0.148" x2="19.497" y2="38.207" gradientUnits="userSpaceOnUse">
<stop stop-color="#09C6F9"/>
<stop offset="1" stop-color="#045DE9"/>
</linearGradient>
</defs>
</svg>
