<svg width="32" height="32" viewBox="0 0 32 32" fill="none" xmlns="http://www.w3.org/2000/svg">
<path d="M16 32C24.8366 32 32 24.8366 32 16C32 7.16344 24.8366 0 16 0C7.16344 0 0 7.16344 0 16C0 24.8366 7.16344 32 16 32Z" fill="#FCA311"/>
<path d="M16 32C24.8366 32 32 24.8366 32 16C32 7.16344 24.8366 0 16 0C7.16344 0 0 7.16344 0 16C0 24.8366 7.16344 32 16 32Z" fill="url(#paint0_linear_7_2004)"/>
<path d="M9.81592 20V11.6H11.3519V20H9.81592ZM16.6519 20.144C15.8599 20.144 15.1679 19.964 14.5759 19.604C13.9839 19.244 13.5239 18.744 13.1959 18.104C12.8679 17.456 12.7039 16.704 12.7039 15.848C12.7039 14.984 12.8719 14.224 13.2079 13.568C13.5519 12.904 14.0359 12.388 14.6599 12.02C15.2919 11.644 16.0399 11.456 16.9039 11.456C17.8879 11.456 18.7039 11.692 19.3519 12.164C19.9999 12.636 20.4199 13.288 20.6119 14.12H18.8959C18.7679 13.728 18.5359 13.424 18.1999 13.208C17.8639 12.984 17.4319 12.872 16.9039 12.872C16.0639 12.872 15.4159 13.14 14.9599 13.676C14.5039 14.204 14.2759 14.932 14.2759 15.86C14.2759 16.788 14.4999 17.508 14.9479 18.02C15.4039 18.524 16.0199 18.776 16.7959 18.776C17.5559 18.776 18.1279 18.572 18.5119 18.164C18.9039 17.748 19.1399 17.204 19.2199 16.532H17.0959V15.38H20.7679V20H19.3519L19.2319 18.896C18.9599 19.296 18.6199 19.604 18.2119 19.82C17.8039 20.036 17.2839 20.144 16.6519 20.144Z" fill="white"/>
<defs>
<linearGradient id="paint0_linear_7_2004" x1="1.92997e-07" y1="-0.148" x2="19.497" y2="38.207" gradientUnits="userSpaceOnUse">
<stop stop-color="#09C6F9"/>
<stop offset="1" stop-color="#045DE9"/>
</linearGradient>
</defs>
</svg>
