<svg width="48" height="48" viewBox="0 0 48 48" fill="none" xmlns="http://www.w3.org/2000/svg">
<path d="M22.085 0V14.406H1.37793C3.56493 7.66801 9.11592 2.50303 16.0789 0.866028C18.0589 0.400028 20.068 0.112 22.085 0Z" fill="#FCA311"/>
<path d="M22.085 0V14.406H1.37793C3.56493 7.66801 9.11592 2.50303 16.0789 0.866028C18.0589 0.400028 20.068 0.112 22.085 0Z" fill="url(#paint0_linear_7_2001)"/>
<path d="M25.915 0V29.756H47.5211C48.2821 25.215 48.1361 20.56 47.0831 16.062C45.3191 8.52201 39.4441 2.63403 31.9211 0.866028C29.9421 0.400028 27.932 0.112 25.915 0Z" fill="#FCA311"/>
<path d="M25.915 0V29.756H47.5211C48.2821 25.215 48.1361 20.56 47.0831 16.062C45.3191 8.52201 39.4441 2.63403 31.9211 0.866028C29.9421 0.400028 27.932 0.112 25.915 0Z" fill="url(#paint1_linear_7_2001)"/>
<path d="M46.6221 33.594H25.915V48C27.932 47.888 29.9421 47.6 31.9211 47.134C38.8841 45.497 44.4351 40.332 46.6221 33.594Z" fill="#FCA311"/>
<path d="M46.6221 33.594H25.915V48C27.932 47.888 29.9421 47.6 31.9211 47.134C38.8841 45.497 44.4351 40.332 46.6221 33.594Z" fill="url(#paint2_linear_7_2001)"/>
<path d="M22.0849 48V18.244H0.478881C-0.282119 22.785 -0.136131 27.44 0.916869 31.938C2.68087 39.478 8.55586 45.366 16.0789 47.134C18.0589 47.6 20.0679 47.888 22.0849 48Z" fill="#FCA311"/>
<path d="M22.0849 48V18.244H0.478881C-0.282119 22.785 -0.136131 27.44 0.916869 31.938C2.68087 39.478 8.55586 45.366 16.0789 47.134C18.0589 47.6 20.0679 47.888 22.0849 48Z" fill="url(#paint3_linear_7_2001)"/>
<defs>
<linearGradient id="paint0_linear_7_2001" x1="-3.19428" y1="-0.739692" x2="111.715" y2="156.53" gradientUnits="userSpaceOnUse">
<stop stop-color="#09C6F9"/>
<stop offset="1" stop-color="#045DE9"/>
</linearGradient>
<linearGradient id="paint1_linear_7_2001" x1="-56.3244" y1="-0.358111" x2="-17.7535" y2="101.878" gradientUnits="userSpaceOnUse">
<stop stop-color="#09C6F9"/>
<stop offset="1" stop-color="#045DE9"/>
</linearGradient>
<linearGradient id="paint2_linear_7_2001" x1="-60.0724" y1="-112.673" x2="54.837" y2="44.5971" gradientUnits="userSpaceOnUse">
<stop stop-color="#09C6F9"/>
<stop offset="1" stop-color="#045DE9"/>
</linearGradient>
<linearGradient id="paint3_linear_7_2001" x1="-0.000123855" y1="-0.221969" x2="29.2448" y2="57.311" gradientUnits="userSpaceOnUse">
<stop stop-color="#09C6F9"/>
<stop offset="1" stop-color="#045DE9"/>
</linearGradient>
</defs>
</svg>
