<svg width="48" height="48" viewBox="0 0 48 48" fill="none" xmlns="http://www.w3.org/2000/svg">
<path fill-rule="evenodd" clip-rule="evenodd" d="M16.0792 0.917006C21.2892 -0.305994 26.7113 -0.305994 31.9213 0.917006C39.4443 2.68101 45.3193 8.55599 47.0833 16.079C48.3063 21.289 48.3063 26.711 47.0833 31.921C45.3193 39.444 39.4443 45.319 31.9213 47.083C26.7113 48.306 21.2892 48.306 16.0792 47.083C8.55624 45.319 2.68125 39.444 0.91725 31.921C-0.30575 26.711 -0.30575 21.289 0.91725 16.079C2.68125 8.55599 8.55624 2.68101 16.0792 0.917006ZM27.9733 18.7C28.8073 18.366 29.6343 19.193 29.3013 20.027L27.2202 25.229C26.8572 26.137 26.1373 26.856 25.2293 27.22L20.0272 29.3C19.1942 29.634 18.3663 28.807 18.7003 27.973L20.7813 22.771C21.1443 21.863 21.8632 21.144 22.7722 20.78L27.9733 18.7ZM32.1453 21.165C33.4793 17.83 30.1703 14.522 26.8363 15.855L21.6342 17.936C19.9472 18.611 18.6112 19.947 17.9362 21.634L15.8563 26.835C14.5223 30.17 17.8312 33.478 21.1652 32.145L26.3673 30.064C28.0533 29.389 29.3903 28.053 30.0643 26.366L32.1453 21.165Z" fill="url(#paint0_linear_7_1944)"/>
<defs>
<linearGradient id="paint0_linear_7_1944" x1="0.000250768" y1="-0.221995" x2="29.2453" y2="57.311" gradientUnits="userSpaceOnUse">
<stop stop-color="#09C6F9"/>
<stop offset="1" stop-color="#045DE9"/>
</linearGradient>
</defs>
</svg>
