<svg width="48" height="61" viewBox="0 0 48 61" fill="none" xmlns="http://www.w3.org/2000/svg">
<path fill-rule="evenodd" clip-rule="evenodd" d="M32.9198 44.485L31.5218 44.793V46.652C31.5218 49.839 29.5178 52.55 26.7218 53.555V58.56C26.7218 59.908 25.6468 61 24.3218 61C22.9958 61 21.9208 59.908 21.9208 58.56V53.555C19.1248 52.55 17.1208 49.839 17.1208 46.652V44.929C16.9128 44.887 16.7038 44.843 16.4958 44.797L15.0798 44.485C8.1698 42.963 2.70176 37.597 0.961762 30.63C-0.321238 25.496 -0.321238 20.118 0.961762 14.984C2.70176 8.01799 8.1698 2.65101 15.0798 1.12901L16.4958 0.816994C21.4408 -0.272006 26.5588 -0.272006 31.5038 0.816994L32.9198 1.12901C39.8298 2.65101 45.2978 8.01796 47.0378 14.985C48.3208 20.118 48.3208 25.496 47.0378 30.63C45.2978 37.597 39.8298 42.963 32.9198 44.485ZM26.7218 45.508C26.4428 45.53 26.1648 45.548 25.8858 45.563C24.5648 45.635 23.2418 45.631 21.9208 45.552V46.652C21.9208 47.999 22.9958 49.092 24.3218 49.092C25.6468 49.092 26.7218 47.999 26.7218 46.652V45.508ZM26.8008 13.116C27.6288 13.789 27.7638 15.018 27.1008 15.859L23.1958 20.821H28.8018C29.5398 20.821 30.2128 21.251 30.5328 21.928C30.8518 22.604 30.7618 23.407 30.3008 23.993L23.9008 32.126C23.2378 32.968 22.0298 33.104 21.2018 32.431C20.3738 31.757 20.2398 30.529 20.9018 29.687L24.8068 24.725H19.2008C18.4628 24.725 17.7898 24.295 17.4708 23.619C17.1508 22.943 17.2408 22.14 17.7018 21.554L24.1018 13.421C24.7648 12.579 25.9728 12.442 26.8008 13.116Z" fill="url(#paint0_linear_7_1942)"/>
<defs>
<linearGradient id="paint0_linear_7_1942" x1="-0.000238801" y1="-0.282005" x2="41.9357" y2="64.635" gradientUnits="userSpaceOnUse">
<stop stop-color="#09C6F9"/>
<stop offset="1" stop-color="#045DE9"/>
</linearGradient>
</defs>
</svg>
